<?xml version="1.0" encoding="UTF-8"?>
<svg id="Layer_1" xmlns="http://www.w3.org/2000/svg" version="1.1" xmlns:xlink="http://www.w3.org/1999/xlink" viewBox="0 0 3000 1002.5">
  <!-- Generator: Adobe Illustrator 29.8.2, SVG Export Plug-In . SVG Version: 2.1.1 Build 3)  -->
  <defs>
    <style>
      .st0 {
        fill: url(#linear-gradient1);
      }

      .st1 {
        fill: #11074e;
      }

      .st2 {
        display: none;
      }

      .st3 {
        fill: url(#linear-gradient);
      }
    </style>
    <linearGradient id="linear-gradient" x1="11416.3" y1="-4038" x2="7283.7" y2="-4038" gradientTransform="translate(29.5 -520.9) rotate(45.7) scale(.1 -.1)" gradientUnits="userSpaceOnUse">
      <stop offset="0" stop-color="#fe01fb"/>
      <stop offset="0" stop-color="#f904fc"/>
      <stop offset="0" stop-color="#f408fe"/>
      <stop offset="0" stop-color="#ef0bff"/>
      <stop offset="0" stop-color="#ea0dff"/>
      <stop offset=".1" stop-color="#e510ff"/>
      <stop offset=".1" stop-color="#e011ff"/>
      <stop offset=".2" stop-color="#db13ff"/>
      <stop offset=".2" stop-color="#d514ff"/>
      <stop offset=".2" stop-color="#d016ff"/>
      <stop offset=".2" stop-color="#cb17ff"/>
      <stop offset=".3" stop-color="#c618ff"/>
      <stop offset=".3" stop-color="#c119ff"/>
      <stop offset=".3" stop-color="#bc1aff"/>
      <stop offset=".3" stop-color="#b71aff"/>
      <stop offset=".4" stop-color="#b21bff"/>
      <stop offset=".4" stop-color="#ad1bff"/>
      <stop offset=".4" stop-color="#a91cff"/>
      <stop offset=".4" stop-color="#a41cff"/>
      <stop offset=".5" stop-color="#9f1dff"/>
      <stop offset=".5" stop-color="#9a1dff"/>
      <stop offset=".5" stop-color="#951eff"/>
      <stop offset=".5" stop-color="#901eff"/>
      <stop offset=".5" stop-color="#8635ff"/>
      <stop offset=".6" stop-color="#7a47ff"/>
      <stop offset=".6" stop-color="#6c57ff"/>
      <stop offset=".6" stop-color="#5a66ff"/>
      <stop offset=".6" stop-color="#4274ff"/>
      <stop offset=".7" stop-color="#1082ff"/>
      <stop offset=".7" stop-color="#008fff"/>
      <stop offset=".7" stop-color="#009bff"/>
      <stop offset=".7" stop-color="#00a7ff"/>
      <stop offset=".8" stop-color="#00b2ff"/>
      <stop offset=".8" stop-color="#00bdff"/>
      <stop offset=".8" stop-color="#00c6ff"/>
      <stop offset=".8" stop-color="#00cfff"/>
      <stop offset=".8" stop-color="#00d8ff"/>
      <stop offset=".9" stop-color="#00dff6"/>
      <stop offset=".9" stop-color="#00e6ec"/>
      <stop offset=".9" stop-color="#00ede2"/>
      <stop offset=".9" stop-color="#00f2d7"/>
      <stop offset="1" stop-color="#00f7cc"/>
      <stop offset="1" stop-color="#00fbc1"/>
      <stop offset="1" stop-color="#00ffb7"/>
    </linearGradient>
    <linearGradient id="linear-gradient1" x1="8442.1" y1="-2604.4" x2="8442.1" y2="-6270.5" gradientTransform="translate(29.5 -520.9) rotate(45.7) scale(.1 -.1)" gradientUnits="userSpaceOnUse">
      <stop offset="0" stop-color="#00ffcf"/>
      <stop offset="0" stop-color="#00fad3"/>
      <stop offset="0" stop-color="#00f4d6"/>
      <stop offset="0" stop-color="#00efda"/>
      <stop offset="0" stop-color="#00e9df"/>
      <stop offset=".1" stop-color="#00e2e3"/>
      <stop offset=".1" stop-color="#00dce7"/>
      <stop offset=".2" stop-color="#00d5eb"/>
      <stop offset=".2" stop-color="#00cdf0"/>
      <stop offset=".2" stop-color="#00c6f4"/>
      <stop offset=".2" stop-color="#00bef7"/>
      <stop offset=".3" stop-color="#00b5fb"/>
      <stop offset=".3" stop-color="#00acfe"/>
      <stop offset=".3" stop-color="#00a3ff"/>
      <stop offset=".3" stop-color="#009aff"/>
      <stop offset=".4" stop-color="#0090ff"/>
      <stop offset=".4" stop-color="#0085ff"/>
      <stop offset=".4" stop-color="#007aff"/>
      <stop offset=".4" stop-color="#006fff"/>
      <stop offset=".4" stop-color="#0062ff"/>
      <stop offset=".5" stop-color="#05f"/>
      <stop offset=".5" stop-color="#0047ff"/>
      <stop offset=".5" stop-color="#2446ff"/>
      <stop offset=".5" stop-color="#3644ff"/>
      <stop offset=".6" stop-color="#4442ff"/>
      <stop offset=".6" stop-color="#5141ff"/>
      <stop offset=".6" stop-color="#5c3fff"/>
      <stop offset=".6" stop-color="#673eff"/>
      <stop offset=".7" stop-color="#713cff"/>
      <stop offset=".7" stop-color="#7b3aff"/>
      <stop offset=".7" stop-color="#8538ff"/>
      <stop offset=".7" stop-color="#8f37ff"/>
      <stop offset=".7" stop-color="#9835ff"/>
      <stop offset=".8" stop-color="#a133ff"/>
      <stop offset=".8" stop-color="#aa31ff"/>
      <stop offset=".8" stop-color="#b32fff"/>
      <stop offset=".8" stop-color="#bd2dff"/>
      <stop offset=".9" stop-color="#c52bff"/>
      <stop offset=".9" stop-color="#ce28ff"/>
      <stop offset=".9" stop-color="#d725ff"/>
      <stop offset=".9" stop-color="#e022ff"/>
      <stop offset="1" stop-color="#e91eff"/>
      <stop offset="1" stop-color="#f11aff"/>
      <stop offset="1" stop-color="#fa14ff"/>
    </linearGradient>
  </defs>
  <g class="st2">
    <polygon class="st1" points="874.5 457.9 800.2 457.9 726.1 539.7 726.1 358.9 665.4 358.9 665.4 672.8 726.1 672.8 726.1 621.9 750.7 594.7 802.2 672.8 869.6 672.8 789.7 551.6 874.5 457.9"/>
    <polygon class="st1" points="887.5 752.6 948.2 752.6 1067.7 457.7 1007 457.7 957.6 579.7 902.8 457.7 841.2 457.7 928.4 651.9 887.5 752.6"/>
    <g>
      <polygon class="st1" points="1213.8 672.8 1270 672.8 1270 652.1 1213.8 595.9 1213.8 672.8"/>
      <path class="st1" d="M1483.6,503.4v.7c-19.4-28-51.8-46.4-88.4-46.4s-92.9,34.8-104.4,81.8v.2l-61-61s-21-21.8-56.4-21.8-41.8,14-41.8,14v-13.3h-56.2v215h56.2v-130.2c0-20.6,19-35.9,40-35.9s21.7,8.7,21.7,8.7l123.6,123.6h0c19.6,20.8,47.4,33.9,78.3,33.9s56.5-12,76-31.5l-38.2-38.2c-9.7,9.7-23,15.7-37.8,15.7s-34.3-9.1-43.9-23h147.6c2.2-8.7,4.2-21.1,4.2-30.5,0-23-7.2-44.3-19.5-61.8ZM1348.3,539.5c9.1-16.6,26.7-27.8,46.9-27.8s37.8,11.2,46.9,27.8h-93.9Z"/>
    </g>
    <path class="st1" d="M1660.2,595.3c-9.9,14.8-26.7,24.6-45.8,24.6-30.4,0-55-24.6-55-55s24.6-55,55-55,36.5,10.1,46.3,25.3l42.7-31.8c-19.5-28-51.9-46.3-88.6-46.3-59.6,0-107.9,48.3-107.9,107.9s48.3,107.9,107.9,107.9,68.6-18,88.1-45.6l-42.7-31.8Z"/>
    <path class="st1" d="M1836.6,513.9v-56.2h-53.5v-71.5l-57,12.1v166.5c0,59.6,48.3,107.9,107.9,107.9v-57c-28.1,0-50.9-22.8-50.9-50.9h0v-50.9h53.5Z"/>
    <rect class="st1" x="1865.5" y="359.6" width="56.2" height="313.1"/>
    <path class="st1" d="M2057.1,457c-59.6,0-107.9,48.3-107.9,107.9s48.3,107.9,107.9,107.9,107.9-48.3,107.9-107.9-48.3-107.9-107.9-107.9ZM2057.1,615.8c-28.1,0-50.9-22.8-50.9-50.9s22.8-50.9,50.9-50.9,50.9,22.8,50.9,50.9-22.8,50.9-50.9,50.9Z"/>
    <path class="st1" d="M2332.9,595.3c-9.9,14.8-26.7,24.6-45.8,24.6-30.4,0-55-24.6-55-55s24.6-55,55-55,36.5,10.1,46.3,25.3l42.7-31.8c-19.5-28-51.9-46.3-88.6-46.3-59.6,0-107.9,48.3-107.9,107.9s48.3,107.9,107.9,107.9,68.6-18,88.1-45.6l-42.7-31.8Z"/>
    <path class="st1" d="M2544.3,457.7v12.4c-15.3-8.4-32.9-13.2-51.7-13.2-59.6,0-107.9,48.3-107.9,107.9s48.3,107.9,107.9,107.9,36.3-4.8,51.7-13.2v13.2h56.2v-215h-56.2ZM2492.6,615.8c-28.1,0-50.9-22.8-50.9-50.9s22.8-50.9,50.9-50.9,50.9,22.8,50.9,50.9-22.8,50.9-50.9,50.9Z"/>
    <rect class="st1" x="2633.9" y="359.6" width="56.2" height="313.1"/>
  </g>
  <g id="glyphGroup_textPair_1771561130800_0.8743494270919316">
    <g>
      <path class="st1" d="M710.7,603.4v56h-59.5v-317.8h59.5v181.4l74.5-83.2h76.1l-85.6,94.6,80.4,125h-69.4l-52.4-81.6-23.7,25.6Z"/>
      <path class="st1" d="M826.2,439.8h65.1l53.2,124.6,49.3-124.6h63.5l-119.9,297.7h-63.1l39.8-99-87.9-198.7Z"/>
      <g>
        <path class="st1" d="M1493.4,550.2c0-30.4-11.4-57.6-32.7-79.3-20.9-20.9-49.3-32.3-78.5-32.3s-57.6,11.4-78.5,32.3c-13,13.8-22.9,29.6-28.4,46.9l-43.4-44.6c-.4,0-.4-.4-1.2-.4-18.1-18.9-43.4-29.6-69.8-29.6s-28,3.2-40.2,8.3v-14.2h-59.1v222.4h59.1v-122.2c3.2-19.7,19.7-35.1,40.2-35.1s20.5,4.3,27.6,11.4l80.4,80,34.3,34.3.4.4s.4,0,.4.4l1.2,1.2h.4c20.5,19.7,47.7,30.8,76.5,30.8s30.8-3.5,45-9.5c13.4-6.3,25.6-14.2,35.9-25.6l-41.4-39.4c-10.6,11.4-24.4,17.3-39.4,17.3s-36.3-10.3-45.7-25.2h156.9v-28.4ZM1336.4,521c9.5-14.6,26.4-25.2,45.7-25.2s35.9,10.6,45.7,25.2h-91.5Z"/>
        <path class="st1" d="M1201.2,659.8h59.1v-22.9l-59.1-58v80.8Z"/>
      </g>
      <path class="st1" d="M1563.1,653.5c-13.4-5.5-25.2-13.8-35.9-24.1-10.3-10.3-18.1-22.5-24.1-35.9-5.5-13.8-8.7-28.4-8.7-43.8s3.2-29.6,8.7-43.8c5.9-13,13.8-25.2,24.1-35.5,10.6-10.3,22.5-18.5,35.9-24.1,13.8-5.9,28.8-9.1,43.8-9.1s36.7,4.7,52.4,13c15.8,8.3,29.2,20.5,39.4,34.7l-48.1,34.3c-10.3-14.2-26.4-22.9-43.8-22.9-29.2,0-53.2,24.1-53.2,53.2s24.1,53.2,53.2,53.2,33.9-8.7,43.8-22.9l48.9,33.5c-20.9,30.4-55.6,48.5-92.7,48.5s-30-2.8-43.8-8.7Z"/>
      <path class="st1" d="M1838,604.2v59.2c-16.6,0-32.3-3.2-47.3-9.5-14.6-5.9-27.6-15-38.6-26-11.4-11-20.1-24.1-26.4-38.6-6.3-15-9.5-31.2-9.5-47.7v-152.6l59.2-19.7v70.6h62.7v55.2h-62.7v46.5c0,34.7,28,62.7,62.7,62.7Z"/>
      <path class="st1" d="M1916.1,341.6v317.8h-59.5v-298.1l59.5-19.7Z"/>
      <path class="st1" d="M2007.9,653.1c-13.4-5.5-25.6-13.8-35.9-24.1-10.3-10.3-18.5-22.5-24.1-35.9-5.9-13.8-8.7-28.4-8.7-43.8s2.8-29.6,8.7-43.8c5.5-13,13.8-25.2,24.1-35.5,10.3-10.3,22.5-18.5,35.9-24.1,13.8-5.9,28.4-9.1,43.8-9.1s29.6,3.2,43.8,9.1c13,5.5,25.2,13.8,35.5,24.1,10.3,10.3,18.5,22.1,24.1,35.5,5.9,14.2,9.1,28.8,9.1,43.8s-3.2,30-9.1,43.8c-5.5,13.4-13.8,25.6-24.1,35.9-10.3,10.3-22.1,18.5-35.5,24.1-14.2,5.9-28.8,8.7-43.8,8.7s-30-2.8-43.8-8.7ZM2051.7,602.6c29.2,0,53.2-23.7,53.2-53.2s-24.1-53.2-53.2-53.2-53.2,24.1-53.2,53.2,23.7,53.2,53.2,53.2Z"/>
      <path class="st1" d="M2241.4,653.5c-13.4-5.5-25.2-13.8-35.9-24.1-10.3-10.3-18.1-22.5-24.1-35.9-5.5-13.8-8.7-28.4-8.7-43.8s3.2-29.6,8.7-43.8c5.9-13,13.8-25.2,24.1-35.5,10.6-10.3,22.5-18.5,35.9-24.1,13.8-5.9,28.8-9.1,43.8-9.1s36.7,4.7,52.4,13c15.8,8.3,29.2,20.5,39.4,34.7l-48.1,34.3c-10.3-14.2-26.4-22.9-43.8-22.9-29.2,0-53.2,24.1-53.2,53.2s24.1,53.2,53.2,53.2,33.9-8.7,43.8-22.9l48.9,33.5c-20.9,30.4-55.6,48.5-92.7,48.5s-30-2.8-43.8-8.7Z"/>
      <path class="st1" d="M2599.4,659.4h-59.2v-9.1c-15.4,7.9-33.1,11.8-50.5,11.8s-30-2.8-43.8-8.7c-13.4-5.5-25.6-13.8-35.9-24.1-10.3-10.3-18.5-22.5-24.1-35.9-5.9-13.8-8.7-28.4-8.7-43.8s2.8-29.6,8.7-43.8c5.5-13.4,13.8-25.2,24.1-35.5,10.3-10.3,22.5-18.5,35.9-24.1,13.8-5.9,28.4-9.1,43.8-9.1s35.1,4.3,50.5,12.2v-12.2h59.2v222ZM2489.8,603c9.5,0,18.5-2.4,26.8-7.1,7.9-4.7,14.6-11.4,18.9-19.3,4.7-7.9,7.1-17.4,7.1-26.4s-1.6-15.8-4.7-22.9c-4.3-9.1-11-16.6-19.3-22.1-8.7-5.5-18.5-8.7-28.8-8.7-29.6,0-53.2,24.1-53.2,53.2s23.7,53.2,53.2,53.2Z"/>
      <path class="st1" d="M2690.1,341.6v317.8h-59.5v-298.1l59.5-19.7Z"/>
    </g>
  </g>
  <path class="st3" d="M318.9,449.1c-1-3.8-2-7.6-2.6-11.5-9.9-60.6,45.5-111.7,105.2-100.6,23.2,4.5,43.6,18.1,56.6,37.8,18.1,26.9,16.2,54.4,10.3,84.7,6.1.7,20.2-1.8,27.2-2.4,28.4-2.1,55.7,8.5,74.4,30.3,50.6,60.4,3.4,152.9-75.2,146.6-7.6-.6-12-2.5-19.2-4.1,6.6,22.2,4.1,46.2-7,66.6-11.3,20.9-30.4,36.5-53.2,43.3-47.6,13.7-95.8-12.5-110.5-60.3-4.5-14.6-3.2-30.2-1-45.1.8-5,1.2-10.1,2-15.2-3.8,0-9,.8-12.9,1.2-14.5,1.4-26.7,3.3-41.2-.2-24.5-5.8-43-20.1-56.1-41.4-11.7-19.3-15.4-42.5-10.2-64.5,5.4-23.4,19.9-43.6,40.3-56.3,17.2-10.6,36.1-14.9,56.4-12.9,4.8.5,11.6,2.6,16.5,3.8ZM331.7,572.3c1-16.1,6.2-35.4,3.6-51.2-1.8-11.1-11.8-20.6-21-26.4-14.1-5.4-23-7.1-37.5-1.1-35.9,15-36.5,66.9.4,80.3,12.6,4.6,40.4-.4,54.5-1.6ZM364.1,444.6c6,10.2,12.5,17.4,23.9,21.4,10.4,3.6,19.8,1.6,30.3.5l23.6-2.2c1.2-7.1,2-14.7,2.9-21.8,2-16.2,4.2-28.8-5.8-43.1-6.5-9.1-16.3-15.2-27.3-17.1-12-2-23.4,1.1-33.2,8.3-9.6,7-16.1,17.5-17.9,29.3-1.5,9.8-.2,15.8,3.4,24.8ZM373,614.7c-1.2,14.8-4.5,30.4-4.5,45.3,0,10.9,7.3,22.4,16,28.8,9.3,6.8,20.9,9.7,32.2,8,29.7-4.6,46.4-36.3,33.2-63.4-4-8.2-10.2-13.3-17.5-18.6-3.1-1.2-7.9-3.2-11.2-3.5-12.1-.8-24.8.9-36.9,2-3.1.3-8.6.6-11.3,1.2ZM481.5,564.8c3.2,5.3,6.4,9.9,11,14,17.7,15.6,46.4,13.3,61.6-4.8,7.8-9.4,11.8-21.2,10.6-33.4-1.1-11.2-6.6-21.4-15.3-28.5-14.3-11.4-27.3-9-44.2-7.4-7,.7-14.2,1.3-21.3,2.1-1.5,9.4-2.5,19.1-3.7,28.6-.7,5.6-1.8,12.5-1.7,18.1,0,3.2,2,8.2,3,11.3ZM378.4,509.9c6,19.8,3.3,27.4,1.1,47.4-.3,2.9-1.2,7.9-1.3,10.7,1.5,0,12.7-.9,14.4-1.1,21.5-2.7,23.9-3,44.2,2.9-6.1-18.6-4-26-1.8-44.8.4-3.7,1.2-9.2,1.2-12.9v-.6s-.4,0-.4,0c-12.6.2-26,3.6-39.1,2.6-8.2-.6-12.1-3-18.4-4.1Z"/>
  <path class="st0" d="M318.8,449.2c-1-3.8-2-7.6-2.6-11.5-9.9-60.6,45.5-111.7,105.2-100.6,23.2,4.5,43.6,18.1,56.6,37.8,18.1,26.9,16.2,54.4,10.3,84.7-1,.5-45.4,4.9-46.6,4.6,1.2-7.1,2-14.7,2.9-21.8,2-16.2,4.2-28.8-5.8-43.1-6.5-9.1-16.3-15.2-27.3-17.1-12-2-23.4,1.1-33.2,8.3-9.6,7-16.1,17.5-17.9,29.3-1.5,9.8-.2,15.8,3.4,24.8-2.8,14.5-4.4,29.9-6.2,44.5-4.4.8-9.1,1.4-13.5,1.9-10,1-20.1,2.6-30.1,3.6-14.1-5.4-23-7.1-37.5-1.1-35.9,15-36.5,66.9.4,80.3,12.6,4.6,40.4-.4,54.5-1.6,3.9-.2,44.9-3.6,46.6-4.4,1.5,0,12.7-.9,14.4-1.1,21.5-2.7,23.9-3,44.2,2.9-6.1-18.6-4-26-1.8-44.8.4-3.7,1.2-9.2,1.2-12.9v-.6c3.1,0,10.2-.9,13.5-1.2,11.2-.9,22.9-2.6,34.1-3.4-1.5,9.4-2.5,19.1-3.7,28.6-.7,5.6-1.8,12.5-1.7,18.1,0,3.2,2,8.2,3,11.3-2.9,10-5.1,33.1-6.4,44.2-9.6,2-31.6,3.2-42.3,5.3-.2.2-.3.4-.5.6-3.1-1.2-7.9-3.2-11.2-3.5-12.1-.8-24.8.9-36.9,2-3.1.3-8.6.6-11.3,1.2l-27.6,2.6c-6.3.6-13.1,1.6-19.3,2-3.8,0-9,.8-12.9,1.2-14.5,1.4-26.7,3.3-41.2-.2-24.5-5.8-43-20.1-56.1-41.4-11.7-19.3-15.4-42.5-10.2-64.5,5.4-23.4,19.9-43.6,40.3-56.3,17.2-10.6,36.1-14.9,56.4-12.9,4.8.5,11.6,2.6,16.5,3.8Z"/>
</svg>